# xmcd
#
# Track frame offsets:
#	150
#	16053
#	35268
#	50068
#	62945
#	81786
#	102114
#	118594
#	138636
#	158224
#	178892
#	191793
#
# Disc length: 2777 seconds
#
# Revision: 0
# Processed by: cddbd v1.5.1PL0 Copyright (c) Steve Scherf et al.
# Submitted via: dBpowerAMP V4.0
#
DISCID=a50ad70c
DTITLE=King Clave - Romantico 2004
DYEAR=1900
DGENRE=balada
TTITLE0=La cuba que yo quisisera
TTITLE1=Yo quiero un pimpollo
TTITLE2=Fuego en mi corazon
TTITLE3=Pobre canario
TTITLE4=Mexico sin ti
TTITLE5=Punto G
TTITLE6=Cuando te rompan el corazon
TTITLE7=Amantes
TTITLE8=Geisha
TTITLE9=Nunca quise enamorarme de ti
TTITLE10=Los angelss no lloran
TTITLE11=Fuego en mi corazon
EXTD=
EXTT0=
EXTT1=
EXTT2=
EXTT3=
EXTT4=
EXTT5=
EXTT6=
EXTT7=
EXTT8=
EXTT9=
EXTT10=
EXTT11=
PLAYORDER=
